<svg xmlns="http://www.w3.org/2000/svg" xmlns:xlink="http://www.w3.org/1999/xlink" width="500" height="500" viewBox="0 0 500 500">
  <defs>
    <path id="path-1" fill-rule="evenodd" d="M293.22916678 78.0208334c23.74545858-7.40992757 45.92155358-19.13359563 65.41666668-34.58333334 14.7737128-11.1831261 27.5569205-24.77628913 37.8125-40.20833334 1.39926624-1.91173376 3.72029967-2.92087448 6.0727356-2.64030873 2.35243593.28056576 4.37102835 1.80727654 5.28143107 3.9944754 11.29072134 30.3776903 9.55728868 64.06657719-4.79166667 93.12500001-27.08333333 57.91666668-57.29166667 72.08333335-57.29166667 72.08333335L293.22916678 78.0208334z"/>
    <path id="path-2" fill-rule="evenodd" d="M123.43750007 78.0208334C99.6920415 70.61090583 77.5159465 58.88723777 58.0208334 43.43750006c-14.7737128-11.1831261-27.5569205-24.77628913-37.8125-40.20833334-1.39926624-1.91173376-3.72029967-2.92087448-6.0727356-2.64030873-2.35243593.28056576-4.37102835 1.80727654-5.28143107 3.9944754-11.29072134 30.3776903-9.55728868 64.06657719 4.79166667 93.12500001 27.08333333 57.91666668 57.29166667 72.08333335 57.29166667 72.08333335l52.50000001-91.77083335z"/>
    <path id="path-7" fill-rule="evenodd" d="M127.0833334 203.54166676c-.05737822 5.16372052-4.27977522 9.30872386-9.44367362 9.27057753-5.1638984-.03814633-9.32459868-4.24507661-9.30568477-9.40908127.0189139-5.16400466 4.21031911-9.34034415 9.3743584-9.34066293 2.5045583-.0001546 4.90504926 1.00185206 6.66622807 2.78259953 1.76117881 1.78074746 2.73660036 4.19216343 2.70877193 6.69656714z"/>
    <path id="path-8" fill-rule="evenodd" d="M289.58333344 203.54166676c.05737823 5.16372052 4.27977523 9.30872386 9.44367363 9.27057753 5.1638984-.03814633 9.32459868-4.24507661 9.30568477-9.40908127-.0189139-5.16400466-4.21031911-9.34034415-9.3743584-9.34066293-2.5045583-.0001546-4.90504926 1.00185206-6.66622807 2.78259953-1.76117881 1.78074746-2.73660036 4.19216343-2.70877193 6.69656714z"/>
  </defs>
  <g transform="translate(41.66666678 31.2500001)">
    <g>
      <use fill="rgb(128,62,194)" xlink:href="#path-1"/>
      <use fill-opacity="0" stroke="rgb(69,65,60)" stroke-linecap="round" stroke-linejoin="round" stroke-width="1" xlink:href="#path-1"/>
    </g>
    <g>
      <use fill="rgb(128,62,194)" xlink:href="#path-2"/>
      <use fill-opacity="0" stroke="rgb(69,65,60)" stroke-linecap="round" stroke-linejoin="round" stroke-width="1" xlink:href="#path-2"/>
    </g>
    <ellipse cx="208.333" cy="212.917" fill="rgb(159,90,229)" rx="188.125" ry="188.125"/>
    <path fill="rgb(128,62,194)" fill-rule="evenodd" d="M20.20833402 212.91666608c0-103.8985672 84.2264328-188.125 188.125-188.125 49.8938446 0 97.74417114 19.82025719 133.0244751 55.10054016 35.28027343 35.28028107 55.1005249 83.13061524 55.1005249 133.02445984 0 103.89855957-84.22644043 188.125-188.125 188.125-103.8985672 0-188.125-84.22644043-188.125-188.125zm16.45833397-11.77082825c0 94.80888367 76.85779 171.66667176 171.66668129 171.66667176 94.80885315 0 171.66664123-76.85778809 171.66664123-171.66667176 0-94.80888366-76.85778808-171.66667175-171.66664123-171.66667175-94.8088913 0-171.6666813 76.85778809-171.6666813 171.66667175z"/>
    <ellipse cx="208.333" cy="62.396" fill="rgb(191,141,242)" rx="56.458" ry="14.063"/>
    <ellipse cx="208.333" cy="212.917" fill="none" stroke="rgb(69,65,60)" stroke-linecap="round" stroke-linejoin="round" stroke-width="1" rx="188.125" ry="188.125"/>
    <g>
      <use fill="rgb(69,65,60)" xlink:href="#path-7"/>
      <use fill-opacity="0" stroke="rgb(69,65,60)" stroke-linecap="round" stroke-linejoin="round" stroke-width="1" xlink:href="#path-7"/>
    </g>
    <g>
      <use fill="rgb(69,65,60)" xlink:href="#path-8"/>
      <use fill-opacity="0" stroke="rgb(69,65,60)" stroke-linecap="round" stroke-linejoin="round" stroke-width="1" xlink:href="#path-8"/>
    </g>
    <path fill="rgb(237,219,255)" fill-rule="evenodd" d="M344.68750012 260.41666677c0 7.8125-10.41666667 14.16666667-23.4375 14.16666667-13.02083334 0-23.54166668-6.875-23.54166668-14.16666667s10.41666667-14.0625 23.54166667-14.0625c13.125 0 23.4375 5.83333333 23.4375 14.0625z"/>
    <path fill="rgb(237,219,255)" fill-rule="evenodd" d="M71.97916673 260.41666677c0 7.8125 10.41666667 14.16666667 23.4375 14.16666667 13.02083334 0 23.54166668-6.35416667 23.54166668-14.16666667s-10.41666667-14.0625-23.54166667-14.0625c-13.125 0-23.4375 5.83333333-23.4375 14.0625z"/>
    <path fill="none" stroke="rgb(69,65,60)" stroke-linecap="round" stroke-linejoin="round" stroke-width="1" d="M144.16666675 296.45833344c18.33103389 14.0733843 41.0893195 21.12993065 64.16666667 19.89583334 23.07734719 1.23409731 45.8356328-5.82244904 64.16666668-19.89583334"/>
    <path fill="none" stroke="rgb(69,65,60)" stroke-linecap="round" stroke-linejoin="round" stroke-width="1" d="M279.58333344 207.5000001c9.14038574-16.92584346 27.02043132-27.2753293 46.25-26.77083335"/>
    <path fill="none" stroke="rgb(69,65,60)" stroke-linecap="round" stroke-linejoin="round" stroke-width="1" d="M137.08333341 207.5000001c-9.14038574-16.92584346-27.02043132-27.2753293-46.25-26.77083335"/>
  </g>
</svg>
